<svg width="116" height="35" viewBox="0 0 116 35" fill="none" xmlns="http://www.w3.org/2000/svg">
<path d="M3.35294 20.5733C1.71205 18.9237 1.7191 16.2562 3.3687 14.6153L14.9107 3.13425C16.5603 1.49336 19.2278 1.50041 20.8687 3.15002C22.5096 4.79962 22.5025 7.46709 20.8529 9.10799L9.31092 20.5891C7.66132 22.23 4.99384 22.2229 3.35294 20.5733Z" fill="url(#paint0_linear_132_81)"/>
<path d="M8.23575 31.8506C6.59486 30.201 6.60191 27.5336 8.25152 25.8927L19.7935 14.4116C21.4431 12.7707 24.1106 12.7778 25.7515 14.4274C27.3924 16.077 27.3853 18.7444 25.7357 20.3853L14.1937 31.8664C12.5441 33.5073 9.87665 33.5002 8.23575 31.8506Z" fill="url(#paint1_linear_132_81)"/>
<path d="M111.607 14.3857H115.618L111.253 19.2659L115.618 24.0573H111.607L108.537 20.7211L105.467 24.0573H101.439L105.84 19.2659L101.439 14.3857H105.467L108.537 17.7575L111.607 14.3857Z" fill="white"/>
<path d="M100.929 10.9253H97.4683V13.3388H100.929V10.9253ZM100.929 24.0574H97.4683V13.8534H100.929V24.0574Z" fill="white"/>
<path d="M92.0549 16.0004C92.9777 14.9947 94.4269 14.3973 96.4026 14.208V16.9764H94.1844C93.3681 16.9764 92.812 17.2603 92.5163 17.8282C92.2323 18.3961 92.0904 19.1651 92.0904 20.1352V24.0571H88.6299V14.3855H91.7177L92.0549 16.0004Z" fill="white"/>
<path d="M81.2092 13.9775C82.4514 13.9775 83.5694 14.2023 84.5632 14.6519C85.5569 15.1015 86.3318 15.7285 86.8879 16.533C87.4558 17.3256 87.7397 18.2188 87.7397 19.2126C87.7397 20.1946 87.4558 21.0878 86.8879 21.8923C86.3318 22.6849 85.5569 23.306 84.5632 23.7556C83.5694 24.2052 82.4514 24.43 81.2092 24.43C80.0143 24.43 78.8963 24.2052 77.8552 23.7556C76.8141 23.2942 75.98 22.6672 75.353 21.8745C74.7378 21.07 74.4302 20.1827 74.4302 19.2126C74.4302 18.2307 74.7378 17.3434 75.353 16.5507C75.98 15.7462 76.8141 15.1192 77.8552 14.6696C78.8963 14.2082 80.0143 13.9775 81.2092 13.9775ZM81.2092 22.194C82.061 22.194 82.7886 21.9396 83.3919 21.4309C83.9953 20.9222 84.297 20.1827 84.297 19.2126C84.297 18.2307 83.9953 17.4853 83.3919 16.9766C82.7886 16.4679 82.061 16.2135 81.2092 16.2135C80.6649 16.2135 80.1385 16.3259 79.6298 16.5507C79.1329 16.7637 78.7247 17.0949 78.4053 17.5445C78.0859 17.9941 77.9261 18.5501 77.9261 19.2126C77.9261 19.8633 78.0859 20.4134 78.4053 20.863C78.7247 21.3126 79.1329 21.6497 79.6298 21.8745C80.1385 22.0875 80.6649 22.194 81.2092 22.194Z" fill="white"/>
<path d="M72.4119 14.3855H74.2575V16.87H72.4119V24.0571H68.9514V16.87H67.0171V14.3855H68.9514V12.2915L72.4119 10.6411V14.3855Z" fill="white"/>
<path d="M66.5245 19.5317H56.8706C56.9416 20.3599 57.2492 21.0461 57.7934 21.5903C58.3495 22.1227 59.1126 22.3889 60.0827 22.3889C60.6032 22.3889 61.0883 22.3001 61.5379 22.1227C61.9992 21.9452 62.366 21.6908 62.6381 21.3596C62.922 21.0283 63.064 20.6497 63.064 20.2238H66.5245C66.5245 21.0402 66.2642 21.7677 65.7437 22.4066C65.2349 23.0336 64.4955 23.5246 63.5254 23.8795C62.5553 24.2344 61.4018 24.4119 60.0649 24.4119C58.8345 24.4119 57.7047 24.193 56.6754 23.7553C55.6462 23.3176 54.8358 22.7024 54.2442 21.9097C53.6527 21.1052 53.3569 20.1883 53.3569 19.1591C53.3569 18.118 53.6527 17.2011 54.2442 16.4084C54.8358 15.604 55.6403 14.9888 56.6577 14.5629C57.6751 14.1251 58.8109 13.9062 60.0649 13.9062C61.3426 13.9062 62.4666 14.1192 63.4367 14.5451C64.4068 14.971 65.158 15.5744 65.6904 16.3552C66.2346 17.1242 66.5127 18.0292 66.5245 19.0703V19.1591H66.5422H66.5245V19.5317ZM60.0827 15.8761C58.4737 15.8761 57.4622 16.5682 57.0481 17.9523H62.9398C62.6204 16.5682 61.668 15.8761 60.0827 15.8761Z" fill="white"/>
<path d="M46.1118 16.3376C47.354 16.3376 48.4306 16.4145 49.3415 16.5683C50.2525 16.7221 51.0097 17.0534 51.613 17.5621C52.2282 18.0708 52.5358 18.8221 52.5358 19.8158C52.5358 21.6378 51.7373 22.8682 50.1401 23.507C48.543 24.1459 46.7506 24.4653 44.7631 24.4653C42.811 24.4653 40.9832 24.14 39.2795 23.4893C37.5759 22.8268 36.7241 21.5727 36.7241 19.7271L40.5395 19.6916C40.5395 20.3423 40.788 20.8274 41.2849 21.1468C41.7936 21.4662 42.3437 21.6673 42.9352 21.7502C43.5386 21.8211 44.1893 21.8566 44.8873 21.8566C45.9521 21.8566 46.8689 21.7028 47.6379 21.3952C48.4069 21.0876 48.7973 20.5908 48.8092 19.9046V19.8868C48.8092 19.3781 48.4247 19.0528 47.6557 18.9108C46.8985 18.757 45.9816 18.6801 44.905 18.6801H44.8873H43.8048C42.3851 18.6801 41.1843 18.6091 40.2023 18.4671C39.2204 18.3133 38.3922 17.9703 37.7179 17.4379C37.0554 16.8937 36.7241 16.0773 36.7241 14.9889C36.7241 12.0194 39.4038 10.5347 44.7631 10.5347C46.6678 10.5347 48.4365 10.86 50.0691 11.5107C51.7136 12.1614 52.5358 13.4154 52.5358 15.2729H48.7559C48.7559 14.6103 48.3714 14.1075 47.6024 13.7644C46.8334 13.4214 45.8988 13.2261 44.7986 13.1788C43.6037 13.1788 42.5862 13.3208 41.7462 13.6047C40.9181 13.8887 40.504 14.3323 40.504 14.9357C40.504 15.8821 41.8764 16.3554 44.6211 16.3554L46.1118 16.3376Z" fill="white"/>
<defs>
<linearGradient id="paint0_linear_132_81" x1="-0.122283" y1="19.0701" x2="22.9483" y2="19.694" gradientUnits="userSpaceOnUse">
<stop offset="0.42587" stop-color="#A1FF07"/>
<stop offset="0.948264" stop-color="#A1FF07" stop-opacity="0"/>
</linearGradient>
<linearGradient id="paint1_linear_132_81" x1="7.38184" y1="32.6626" x2="27.032" y2="32.8505" gradientUnits="userSpaceOnUse">
<stop stop-color="#A1FF07" stop-opacity="0"/>
<stop offset="1" stop-color="#A1FF07"/>
</linearGradient>
</defs>
</svg>
