<svg width="26" height="31" viewBox="0 0 26 31" fill="none" xmlns="http://www.w3.org/2000/svg">
<path d="M3.09884 18.2222C1.64547 16.7611 1.65172 14.3985 3.1128 12.9451L13.3357 2.77616C14.7968 1.3228 17.1594 1.32905 18.6128 2.79013C20.0661 4.2512 20.0599 6.61382 18.5988 8.06719L8.3759 18.2361C6.91482 19.6895 4.5522 19.6832 3.09884 18.2222Z" fill="url(#paint0_linear_138_216)"/>
<path d="M7.42354 28.2109C5.97018 26.7499 5.97643 24.3872 7.4375 22.9339L17.6604 12.7649C19.1215 11.3116 21.4841 11.3178 22.9375 12.7789C24.3908 14.24 24.3846 16.6026 22.9235 18.056L12.7006 28.2249C11.2395 29.6783 8.87691 29.672 7.42354 28.2109Z" fill="url(#paint1_linear_138_216)"/>
<defs>
<linearGradient id="paint0_linear_138_216" x1="0.0207797" y1="16.8908" x2="20.4547" y2="17.4434" gradientUnits="userSpaceOnUse">
<stop offset="0.42587" stop-color="#A1FF07"/>
<stop offset="0.948264" stop-color="#A1FF07" stop-opacity="0"/>
</linearGradient>
<linearGradient id="paint1_linear_138_216" x1="6.66722" y1="28.9301" x2="24.0717" y2="29.0965" gradientUnits="userSpaceOnUse">
<stop stop-color="#A1FF07" stop-opacity="0"/>
<stop offset="1" stop-color="#A1FF07"/>
</linearGradient>
</defs>
</svg>
