<svg width="1439" height="1041" viewBox="0 0 1439 1041" fill="none" xmlns="http://www.w3.org/2000/svg">
<g clip-path="url(#clip0_22_941)">
<path d="M-0.000488281 1195.43L371.319 947.671V247.759L-0.000488281 0V1195.43Z" stroke="#19191E" stroke-opacity="0.05" stroke-width="2" stroke-miterlimit="10"/>
<path d="M-0.000488281 199.275L371.319 364.424" stroke="#19191E" stroke-opacity="0.05" stroke-width="2" stroke-miterlimit="10"/>
<path d="M-0.000488281 398.479L371.319 481.089" stroke="#19191E" stroke-opacity="0.05" stroke-width="2" stroke-miterlimit="10"/>
<path d="M-0.000488281 597.751H371.319" stroke="#19191E" stroke-opacity="0.05" stroke-width="2" stroke-miterlimit="10"/>
<path d="M-0.000488281 796.955L371.319 714.416" stroke="#19191E" stroke-opacity="0.05" stroke-width="2" stroke-miterlimit="10"/>
<path d="M-0.000488281 996.229L371.319 831.008" stroke="#19191E" stroke-opacity="0.05" stroke-width="2" stroke-miterlimit="10"/>
<path d="M332.36 973.693V221.812" stroke="#19191E" stroke-opacity="0.05" stroke-width="2" stroke-miterlimit="10"/>
<path d="M287.218 1003.76V191.667" stroke="#19191E" stroke-opacity="0.05" stroke-width="2" stroke-miterlimit="10"/>
<path d="M234.183 1039.17V156.263" stroke="#19191E" stroke-opacity="0.05" stroke-width="2" stroke-miterlimit="10"/>
<path d="M171.054 1081.33V114.176" stroke="#19191E" stroke-opacity="0.05" stroke-width="2" stroke-miterlimit="10"/>
<path d="M94.5591 1132.37V63.1299" stroke="#19191E" stroke-opacity="0.05" stroke-width="2" stroke-miterlimit="10"/>
<path d="M1439 0L1067.68 247.759V947.671L1439 1195.43V0Z" stroke="#19191E" stroke-opacity="0.05" stroke-width="2" stroke-miterlimit="10"/>
<path d="M1439 996.229L1067.68 831.008" stroke="#19191E" stroke-opacity="0.05" stroke-width="2" stroke-miterlimit="10"/>
<path d="M1439 796.955L1067.68 714.416" stroke="#19191E" stroke-opacity="0.05" stroke-width="2" stroke-miterlimit="10"/>
<path d="M1439 597.751H1067.68" stroke="#19191E" stroke-opacity="0.05" stroke-width="2" stroke-miterlimit="10"/>
<path d="M1439 398.479L1067.68 481.089" stroke="#19191E" stroke-opacity="0.05" stroke-width="2" stroke-miterlimit="10"/>
<path d="M1439 199.275L1067.68 364.424" stroke="#19191E" stroke-opacity="0.05" stroke-width="2" stroke-miterlimit="10"/>
<path d="M1106.64 221.812V973.693" stroke="#19191E" stroke-opacity="0.05" stroke-width="2" stroke-miterlimit="10"/>
<path d="M1151.78 191.667V1003.76" stroke="#19191E" stroke-opacity="0.05" stroke-width="2" stroke-miterlimit="10"/>
<path d="M1204.82 156.263V1039.17" stroke="#19191E" stroke-opacity="0.05" stroke-width="2" stroke-miterlimit="10"/>
<path d="M1267.95 114.176V1081.33" stroke="#19191E" stroke-opacity="0.05" stroke-width="2" stroke-miterlimit="10"/>
<path d="M1344.44 63.1299V1132.37" stroke="#19191E" stroke-opacity="0.05" stroke-width="2" stroke-miterlimit="10"/>
<path d="M1067.68 249.537H371.322V945.894H1067.68V249.537Z" stroke="#19191E" stroke-opacity="0.05" stroke-width="2" stroke-miterlimit="10"/>
<path d="M1067.68 829.869H371.322" stroke="#19191E" stroke-opacity="0.05" stroke-width="2" stroke-miterlimit="10"/>
<path d="M1067.68 713.773H371.322" stroke="#19191E" stroke-opacity="0.05" stroke-width="2" stroke-miterlimit="10"/>
<path d="M1067.68 597.751H371.322" stroke="#19191E" stroke-opacity="0.05" stroke-width="2" stroke-miterlimit="10"/>
<path d="M1067.68 481.656H371.322" stroke="#19191E" stroke-opacity="0.05" stroke-width="2" stroke-miterlimit="10"/>
<path d="M1067.68 365.633H371.322" stroke="#19191E" stroke-opacity="0.05" stroke-width="2" stroke-miterlimit="10"/>
<path d="M487.348 249.537V945.894" stroke="#19191E" stroke-opacity="0.05" stroke-width="2" stroke-miterlimit="10"/>
<path d="M603.444 249.537V945.894" stroke="#19191E" stroke-opacity="0.05" stroke-width="2" stroke-miterlimit="10"/>
<path d="M719.463 249.537V945.894" stroke="#19191E" stroke-opacity="0.05" stroke-width="2" stroke-miterlimit="10"/>
<path d="M835.56 249.537V945.894" stroke="#19191E" stroke-opacity="0.05" stroke-width="2" stroke-miterlimit="10"/>
<path d="M951.654 249.537V945.894" stroke="#19191E" stroke-opacity="0.05" stroke-width="2" stroke-miterlimit="10"/>
<path d="M-0.000488281 0L369.541 249.537H1069.45L1438.99 0H-0.000488281Z" stroke="#19191E" stroke-opacity="0.05" stroke-width="2" stroke-miterlimit="10"/>
<path d="M1199.13 0L952.793 249.537" stroke="#19191E" stroke-opacity="0.05" stroke-width="2" stroke-miterlimit="10"/>
<path d="M959.332 0L836.128 249.537" stroke="#19191E" stroke-opacity="0.05" stroke-width="2" stroke-miterlimit="10"/>
<path d="M719.532 0V249.537" stroke="#19191E" stroke-opacity="0.05" stroke-width="2" stroke-miterlimit="10"/>
<path d="M479.67 0L602.874 249.537" stroke="#19191E" stroke-opacity="0.05" stroke-width="2" stroke-miterlimit="10"/>
<path d="M239.869 0L486.207 249.537" stroke="#19191E" stroke-opacity="0.05" stroke-width="2" stroke-miterlimit="10"/>
<path d="M336.769 227.428H1102.23" stroke="#19191E" stroke-opacity="0.05" stroke-width="2" stroke-miterlimit="10"/>
<path d="M297.244 200.769H1141.76" stroke="#19191E" stroke-opacity="0.05" stroke-width="2" stroke-miterlimit="10"/>
<path d="M248.617 167.923H1190.39" stroke="#19191E" stroke-opacity="0.05" stroke-width="2" stroke-miterlimit="10"/>
<path d="M187.334 126.475H1251.67" stroke="#19191E" stroke-opacity="0.05" stroke-width="2" stroke-miterlimit="10"/>
<path d="M107.708 72.728H1331.29" stroke="#19191E" stroke-opacity="0.05" stroke-width="2" stroke-miterlimit="10"/>
<path d="M1438.99 1195.43L1069.45 945.896H369.541L-0.000488281 1195.43H1438.99Z" stroke="#19191E" stroke-opacity="0.05" stroke-width="2" stroke-miterlimit="10"/>
<path d="M239.869 1195.43L486.207 945.896" stroke="#19191E" stroke-opacity="0.05" stroke-width="2" stroke-miterlimit="10"/>
<path d="M479.67 1195.43L602.874 945.896" stroke="#19191E" stroke-opacity="0.05" stroke-width="2" stroke-miterlimit="10"/>
<path d="M719.463 1195.43L719.534 945.896" stroke="#19191E" stroke-opacity="0.05" stroke-width="2" stroke-miterlimit="10"/>
<path d="M959.332 1195.43L836.128 945.896" stroke="#19191E" stroke-opacity="0.05" stroke-width="2" stroke-miterlimit="10"/>
<path d="M1199.13 1195.43L952.793 945.896" stroke="#19191E" stroke-opacity="0.05" stroke-width="2" stroke-miterlimit="10"/>
<path d="M1102.23 968.005H336.769" stroke="#19191E" stroke-opacity="0.05" stroke-width="2" stroke-miterlimit="10"/>
<path d="M1141.76 994.733H297.244" stroke="#19191E" stroke-opacity="0.05" stroke-width="2" stroke-miterlimit="10"/>
<path d="M1190.39 1027.58H248.617" stroke="#19191E" stroke-opacity="0.05" stroke-width="2" stroke-miterlimit="10"/>
</g>
<defs>
<clipPath id="clip0_22_941">
<rect width="1439" height="1041" fill="white"/>
</clipPath>
</defs>
</svg>
